<?xml version="1.0" standalone="no"?>
<!DOCTYPE svg PUBLIC "-//W3C//DTD SVG 20010904//EN"
 "http://www.w3.org/TR/2001/REC-SVG-20010904/DTD/svg10.dtd">
<svg version="1.0" xmlns="http://www.w3.org/2000/svg"
 width="512.000000pt" height="512.000000pt" viewBox="0 0 512.000000 512.000000"
 preserveAspectRatio="xMidYMid meet">

<g transform="translate(0.000000,512.000000) scale(0.100000,-0.100000)"
fill="#000000" stroke="none">
<path d="M356 5105 c-49 -17 -93 -59 -117 -110 -16 -34 -19 -66 -19 -202 l0
-163 35 0 c32 0 35 -2 35 -30 0 -70 83 -178 180 -233 105 -60 304 -85 442 -56
171 36 303 146 330 274 l10 45 201 2 202 3 3 73 3 72 134 0 c159 0 215 -10
315 -57 99 -47 211 -158 258 -255 65 -134 62 -8 62 -2170 l0 -1968 -200 0
-200 0 0 -165 0 -165 530 0 530 0 0 165 0 165 -200 0 -200 0 0 1968 c0 2162
-3 2036 62 2170 47 97 159 208 258 255 100 47 156 57 315 57 l134 0 3 -72 3
-73 202 -3 201 -2 10 -45 c27 -128 159 -238 330 -274 138 -29 337 -4 442 56
97 55 180 163 180 233 0 28 3 30 35 30 l35 0 0 163 c0 135 -3 169 -19 202 -23
51 -79 101 -128 114 -24 7 -231 11 -578 11 -501 0 -543 -2 -580 -19 -22 -10
-46 -25 -54 -34 -11 -14 -34 -17 -140 -17 -341 0 -533 -65 -711 -240 -48 -47
-97 -98 -109 -115 l-21 -30 -21 30 c-12 17 -61 68 -109 115 -179 176 -372 240
-720 240 -97 0 -120 3 -131 17 -8 9 -32 24 -54 34 -37 17 -79 19 -585 18 -437
0 -553 -3 -584 -14z m774 -490 c0 -52 -82 -133 -167 -165 -222 -83 -508 -6
-553 149 l-9 31 365 0 c322 0 364 -2 364 -15z m3580 -16 c-35 -120 -239 -206
-427 -179 -133 18 -240 77 -278 151 -33 62 -51 59 349 59 l365 0 -9 -31z"/>
</g>
</svg>
